<svg width="126" height="70" viewBox="0 0 126 70" fill="none" xmlns="http://www.w3.org/2000/svg">
<path d="M12.7909 40.0495H6.24092L5.19092 43.1495H0.715918L7.06592 25.5995H12.0159L18.3659 43.1495H13.8409L12.7909 40.0495ZM11.6909 36.7495L9.51592 30.3245L7.36592 36.7495H11.6909ZM24.5735 31.1745C24.9902 30.5245 25.5652 29.9995 26.2985 29.5995C27.0319 29.1995 27.8902 28.9995 28.8735 28.9995C30.0235 28.9995 31.0652 29.2912 31.9985 29.8745C32.9319 30.4579 33.6652 31.2912 34.1985 32.3745C34.7485 33.4579 35.0235 34.7162 35.0235 36.1495C35.0235 37.5829 34.7485 38.8495 34.1985 39.9495C33.6652 41.0329 32.9319 41.8745 31.9985 42.4745C31.0652 43.0579 30.0235 43.3495 28.8735 43.3495C27.9069 43.3495 27.0485 43.1495 26.2985 42.7495C25.5652 42.3495 24.9902 41.8329 24.5735 41.1995V49.7995H20.2985V29.1995H24.5735V31.1745ZM30.6735 36.1495C30.6735 35.0829 30.3735 34.2495 29.7735 33.6495C29.1902 33.0329 28.4652 32.7245 27.5985 32.7245C26.7485 32.7245 26.0235 33.0329 25.4235 33.6495C24.8402 34.2662 24.5485 35.1079 24.5485 36.1745C24.5485 37.2412 24.8402 38.0829 25.4235 38.6995C26.0235 39.3162 26.7485 39.6245 27.5985 39.6245C28.4485 39.6245 29.1735 39.3162 29.7735 38.6995C30.3735 38.0662 30.6735 37.2162 30.6735 36.1495ZM41.5413 31.1745C41.958 30.5245 42.533 29.9995 43.2663 29.5995C43.9996 29.1995 44.858 28.9995 45.8413 28.9995C46.9913 28.9995 48.033 29.2912 48.9663 29.8745C49.8996 30.4579 50.633 31.2912 51.1663 32.3745C51.7163 33.4579 51.9913 34.7162 51.9913 36.1495C51.9913 37.5829 51.7163 38.8495 51.1663 39.9495C50.633 41.0329 49.8996 41.8745 48.9663 42.4745C48.033 43.0579 46.9913 43.3495 45.8413 43.3495C44.8746 43.3495 44.0163 43.1495 43.2663 42.7495C42.533 42.3495 41.958 41.8329 41.5413 41.1995V49.7995H37.2663V29.1995H41.5413V31.1745ZM47.6413 36.1495C47.6413 35.0829 47.3413 34.2495 46.7413 33.6495C46.158 33.0329 45.433 32.7245 44.5663 32.7245C43.7163 32.7245 42.9913 33.0329 42.3913 33.6495C41.808 34.2662 41.5163 35.1079 41.5163 36.1745C41.5163 37.2412 41.808 38.0829 42.3913 38.6995C42.9913 39.3162 43.7163 39.6245 44.5663 39.6245C45.4163 39.6245 46.1413 39.3162 46.7413 38.6995C47.3413 38.0662 47.6413 37.2162 47.6413 36.1495Z" fill="url(#paint0_linear_28_2392)"/>
<ellipse cx="90.5353" cy="35" rx="35" ry="35" fill="url(#paint1_linear_28_2392)"/>
<path d="M67.8807 43.5871C66.5974 43.5871 65.4474 43.3788 64.4307 42.9621C63.4141 42.5454 62.5974 41.9288 61.9807 41.1121C61.3807 40.2954 61.0641 39.3121 61.0307 38.1621H65.5807C65.6474 38.8121 65.8724 39.3121 66.2557 39.6621C66.6391 39.9954 67.1391 40.1621 67.7557 40.1621C68.3891 40.1621 68.8891 40.0204 69.2557 39.7371C69.6224 39.4371 69.8057 39.0288 69.8057 38.5121C69.8057 38.0788 69.6557 37.7204 69.3557 37.4371C69.0724 37.1538 68.7141 36.9204 68.2807 36.7371C67.8641 36.5538 67.2641 36.3454 66.4807 36.1121C65.3474 35.7621 64.4224 35.4121 63.7057 35.0621C62.9891 34.7121 62.3724 34.1954 61.8557 33.5121C61.3391 32.8288 61.0807 31.9371 61.0807 30.8371C61.0807 29.2038 61.6724 27.9288 62.8557 27.0121C64.0391 26.0788 65.5807 25.6121 67.4807 25.6121C69.4141 25.6121 70.9724 26.0788 72.1557 27.0121C73.3391 27.9288 73.9724 29.2121 74.0557 30.8621H69.4307C69.3974 30.2954 69.1891 29.8538 68.8057 29.5371C68.4224 29.2038 67.9307 29.0371 67.3307 29.0371C66.8141 29.0371 66.3974 29.1788 66.0807 29.4621C65.7641 29.7288 65.6057 30.1204 65.6057 30.6371C65.6057 31.2038 65.8724 31.6454 66.4057 31.9621C66.9391 32.2788 67.7724 32.6204 68.9057 32.9871C70.0391 33.3704 70.9557 33.7371 71.6557 34.0871C72.3724 34.4371 72.9891 34.9454 73.5057 35.6121C74.0224 36.2788 74.2807 37.1371 74.2807 38.1871C74.2807 39.1871 74.0224 40.0954 73.5057 40.9121C73.0057 41.7288 72.2724 42.3788 71.3057 42.8621C70.3391 43.3454 69.1974 43.5871 67.8807 43.5871ZM81.1866 31.4371C81.6033 30.7871 82.1783 30.2621 82.9116 29.8621C83.6449 29.4621 84.5033 29.2621 85.4866 29.2621C86.6366 29.2621 87.6783 29.5538 88.6116 30.1371C89.5449 30.7204 90.2783 31.5538 90.8116 32.6371C91.3616 33.7204 91.6366 34.9788 91.6366 36.4121C91.6366 37.8454 91.3616 39.1121 90.8116 40.2121C90.2783 41.2954 89.5449 42.1371 88.6116 42.7371C87.6783 43.3204 86.6366 43.6121 85.4866 43.6121C84.5199 43.6121 83.6616 43.4121 82.9116 43.0121C82.1783 42.6121 81.6033 42.0954 81.1866 41.4621V50.0621H76.9116V29.4621H81.1866V31.4371ZM87.2866 36.4121C87.2866 35.3454 86.9866 34.5121 86.3866 33.9121C85.8033 33.2954 85.0783 32.9871 84.2116 32.9871C83.3616 32.9871 82.6366 33.2954 82.0366 33.9121C81.4533 34.5288 81.1616 35.3704 81.1616 36.4371C81.1616 37.5038 81.4533 38.3454 82.0366 38.9621C82.6366 39.5788 83.3616 39.8871 84.2116 39.8871C85.0616 39.8871 85.7866 39.5788 86.3866 38.9621C86.9866 38.3288 87.2866 37.4788 87.2866 36.4121ZM100.229 43.6121C98.8627 43.6121 97.6294 43.3204 96.5294 42.7371C95.446 42.1538 94.5877 41.3204 93.9544 40.2371C93.3377 39.1538 93.0294 37.8871 93.0294 36.4371C93.0294 35.0038 93.346 33.7454 93.9794 32.6621C94.6127 31.5621 95.4794 30.7204 96.5794 30.1371C97.6794 29.5538 98.9127 29.2621 100.279 29.2621C101.646 29.2621 102.879 29.5538 103.979 30.1371C105.079 30.7204 105.946 31.5621 106.579 32.6621C107.213 33.7454 107.529 35.0038 107.529 36.4371C107.529 37.8704 107.204 39.1371 106.554 40.2371C105.921 41.3204 105.046 42.1538 103.929 42.7371C102.829 43.3204 101.596 43.6121 100.229 43.6121ZM100.229 39.9121C101.046 39.9121 101.738 39.6121 102.304 39.0121C102.888 38.4121 103.179 37.5538 103.179 36.4371C103.179 35.3204 102.896 34.4621 102.329 33.8621C101.779 33.2621 101.096 32.9621 100.279 32.9621C99.446 32.9621 98.7544 33.2621 98.2044 33.8621C97.6544 34.4454 97.3794 35.3038 97.3794 36.4371C97.3794 37.5538 97.646 38.4121 98.1794 39.0121C98.7294 39.6121 99.4127 39.9121 100.229 39.9121ZM117.572 39.7871V43.4121H115.397C113.847 43.4121 112.639 43.0371 111.772 42.2871C110.906 41.5204 110.472 40.2788 110.472 38.5621V33.0121H108.772V29.4621H110.472V26.0621H114.747V29.4621H117.547V33.0121H114.747V38.6121C114.747 39.0288 114.847 39.3288 115.047 39.5121C115.247 39.6954 115.581 39.7871 116.047 39.7871H117.572Z" fill="white"/>
<defs>
<linearGradient id="paint0_linear_28_2392" x1="-5.73817" y1="24.6888" x2="52.0705" y2="66.0312" gradientUnits="userSpaceOnUse">
<stop/>
<stop offset="1" stop-color="#1E1E1E"/>
</linearGradient>
<linearGradient id="paint1_linear_28_2392" x1="55.5353" y1="35" x2="125.535" y2="35" gradientUnits="userSpaceOnUse">
<stop/>
<stop offset="0.615" stop-color="#0D0D0D"/>
<stop offset="0.91" stop-color="#1E1E1E"/>
<stop offset="1" stop-color="#2F2F2F"/>
</linearGradient>
</defs>
</svg>
